<?xml version="1.0" encoding="UTF-8"?>
<svg id="Layer_2" data-name="Layer 2" xmlns="http://www.w3.org/2000/svg" viewBox="0 0 614.18 375.4">
  <defs>
    <style>
      .cls-1 {
        fill: #ff2828;
      }

      .cls-1, .cls-2, .cls-3 {
        stroke-width: 0px;
      }

      .cls-2 {
        fill: #fff;
      }

      .cls-3 {
        fill: #231f20;
      }
    </style>
  </defs>
  <g id="Layer_1-2" data-name="Layer 1">
    <g>
      <path class="cls-3" d="M0,187.4c0-26,19.9-44.78,46.64-44.78,14.18,0,26.37,5.1,34.45,14.55l-10.45,9.83c-6.34-6.84-14.18-10.2-23.26-10.2-18.03,0-31.09,12.69-31.09,30.6s13.06,30.6,31.09,30.6c9.08,0,16.92-3.36,23.26-10.32l10.45,9.95c-8.09,9.45-20.27,14.55-34.58,14.55-26.62,0-46.52-18.78-46.52-44.78Z"/>
      <path class="cls-3" d="M208.84,221.73l5.6-12.56c6.96,5.6,18.03,9.58,28.73,9.58,13.56,0,19.28-4.85,19.28-11.32,0-18.78-51.74-6.47-51.74-38.81,0-14.05,11.19-26,35.08-26,10.45,0,21.39,2.74,28.98,7.71l-5.1,12.56c-7.84-4.6-16.42-6.84-24.01-6.84-13.43,0-18.91,5.22-18.91,11.82,0,18.53,51.62,6.47,51.62,38.43,0,13.93-11.32,25.87-35.2,25.87-13.56,0-27.11-4.23-34.33-10.45Z"/>
      <path class="cls-3" d="M391.79,230.93l-.12-57.71-28.61,47.76h-7.21l-28.61-47.01v56.97h-15.42v-87.07h13.31l34.58,57.71,33.96-57.71h13.31l.12,87.07h-15.3Z"/>
      <path class="cls-3" d="M544.65,221.73l5.6-12.56c6.97,5.6,18.04,9.58,28.73,9.58,13.56,0,19.28-4.85,19.28-11.32,0-18.78-51.74-6.47-51.74-38.81,0-14.05,11.19-26,35.08-26,10.45,0,21.39,2.74,28.98,7.71l-5.1,12.56c-7.84-4.6-16.42-6.84-24.01-6.84-13.43,0-18.91,5.22-18.91,11.82,0,18.53,51.62,6.47,51.62,38.43,0,13.93-11.32,25.87-35.2,25.87-13.56,0-27.11-4.23-34.33-10.45Z"/>
      <g>
        <g>
          <ellipse class="cls-2" cx="147.73" cy="145.02" rx="34.15" ry="33.34" transform="translate(-29.18 252.54) rotate(-75.76)"/>
          <path class="cls-3" d="M147.34,186.9c-3.28,0-6.61-.4-9.93-1.24-21.97-5.58-35.22-28.34-29.54-50.75,5.69-22.41,28.21-36.1,50.16-30.53,21.97,5.58,35.22,28.34,29.54,50.75h0c-4.83,19.03-21.78,31.77-40.24,31.77ZM148.11,118.69c-11.51,0-22.12,8.05-25.16,20.05-3.58,14.1,4.63,28.39,18.29,31.86,13.66,3.47,27.69-5.18,31.27-19.28h0c3.58-14.1-4.63-28.39-18.29-31.86-2.04-.52-4.08-.76-6.1-.76Z"/>
        </g>
        <g>
          <ellipse class="cls-2" cx="484.11" cy="230.38" rx="34.15" ry="33.34" transform="translate(141.73 642.96) rotate(-75.76)"/>
          <path class="cls-3" d="M483.73,272.26c-3.28,0-6.61-.4-9.93-1.24-10.68-2.71-19.63-9.51-25.2-19.13-5.54-9.57-7.08-20.8-4.33-31.62,2.75-10.82,9.45-19.95,18.88-25.72,9.49-5.81,20.6-7.51,31.28-4.8,10.68,2.71,19.63,9.5,25.2,19.13,5.54,9.57,7.08,20.8,4.33,31.62h0c-4.83,19.03-21.78,31.77-40.24,31.77ZM484.45,204.04c-4.59,0-9.12,1.28-13.19,3.77-5.95,3.64-10.18,9.42-11.93,16.29-1.74,6.87-.78,13.97,2.72,20,3.46,5.97,8.99,10.18,15.57,11.85,13.66,3.48,27.69-5.18,31.27-19.28,1.74-6.86.78-13.97-2.72-20-3.46-5.97-8.99-10.18-15.57-11.85-2.03-.52-4.1-.77-6.15-.77Z"/>
        </g>
      </g>
      <g>
        <path class="cls-1" d="M484.07,230.38s0,0,0,0c0,0,0,.02,0,.02-12.92,43.61-42.88,81.75-82.36,103.72-127,70.51-271.78-43.88-231.15-183.3,0,0-11.4-2.89-22.79-5.78-6.28-1.59-12.56-3.19-12.56-3.19h0c-3.56-.9-10.23-2.6-10.23-2.6-5.41,25.35-6.01,51.64-1.64,76.92,22.07,132.76,171.16,204.38,284.56,127.94,39.04-26.3,66.77-68.03,76.17-113.73,0,0,0,0,0,0Z"/>
        <path class="cls-1" d="M508.5,159.24C486.44,26.47,337.34-45.15,223.94,31.3c-39.04,26.3-66.77,68.03-76.17,113.73,0,0,0,0,0,0,0,0,0,0,0,0,0,0,0-.01,0-.02,12.92-43.61,42.88-81.75,82.36-103.72,127-70.51,271.78,43.88,231.15,183.3l10.23,2.6h0s6.28,1.59,12.56,3.19l22.79,5.78c5.41-25.35,6.01-51.64,1.64-76.92Z"/>
        <g>
          <ellipse class="cls-2" cx="484.11" cy="230.38" rx="34.15" ry="33.34" transform="translate(141.73 642.96) rotate(-75.76)"/>
          <path class="cls-3" d="M483.73,272.26c-3.28,0-6.61-.4-9.93-1.24-10.68-2.71-19.63-9.51-25.2-19.13-5.54-9.57-7.08-20.8-4.33-31.62,2.75-10.82,9.45-19.95,18.88-25.72,9.49-5.81,20.6-7.51,31.28-4.8,10.68,2.71,19.63,9.5,25.2,19.13,5.54,9.57,7.08,20.8,4.33,31.62-4.83,19.03-21.78,31.77-40.24,31.77ZM484.45,204.04c-4.59,0-9.12,1.28-13.19,3.77-5.95,3.64-10.18,9.42-11.93,16.29h0c-1.74,6.87-.78,13.97,2.72,20,3.46,5.97,8.99,10.18,15.57,11.85,13.66,3.48,27.69-5.18,31.27-19.28,1.74-6.86.78-13.97-2.72-20-3.46-5.97-8.99-10.18-15.57-11.85-2.03-.52-4.1-.77-6.15-.77Z"/>
        </g>
        <g>
          <ellipse class="cls-2" cx="147.73" cy="145.02" rx="34.15" ry="33.34" transform="translate(-29.18 252.54) rotate(-75.76)"/>
          <path class="cls-3" d="M147.34,186.9c-3.28,0-6.61-.4-9.93-1.24-21.97-5.58-35.22-28.34-29.54-50.75h0c5.69-22.41,28.21-36.1,50.16-30.53,21.97,5.58,35.22,28.34,29.54,50.75-4.83,19.03-21.78,31.77-40.24,31.77ZM122.95,138.73h0c-3.58,14.1,4.63,28.39,18.29,31.86,13.66,3.47,27.69-5.18,31.27-19.28,3.58-14.1-4.63-28.39-18.29-31.86-13.64-3.47-27.69,5.18-31.27,19.28Z"/>
        </g>
      </g>
    </g>
  </g>
</svg>